<svg id="Capa_1" enable-background="new 0 0 512 512" height="512" viewBox="0 0 512 512" width="512" xmlns="http://www.w3.org/2000/svg"><g><g><path clip-rule="evenodd" d="m3.204 44.627 117.043 65.566-20.967-98.684c-1.314-.058-2.541.175-4.731.817l-91.462 26.611c-3.825 1.255-4.439 3.122.117 5.69z" fill="#7bacdf" fill-rule="evenodd"/></g><g><path clip-rule="evenodd" d="m120.247 110.193 26.545 118.351 132.082-28.712-38.255-72.073-51.367-96.846c-.847-1.576-.438-1.342-2.161-1.692l-83.781-17.07c-1.781-.379-2.949-.613-4.03-.642z" fill="#c5e3ff" fill-rule="evenodd"/></g><g><path clip-rule="evenodd" d="m146.792 228.544 17.667 78.871c1.46 6.361 1.723 5.748 7.943 6.974l176.586 35.044c5.694 1.138 8.819 2.626 12.323-1.984l42.927-56.141 107.143-140.089c1.197-1.576.555-2.13-1.08-1.722l-231.428 50.334z" fill="#7bacdf" fill-rule="evenodd"/></g><g><path clip-rule="evenodd" d="m240.619 127.759 38.255 72.073 62.464-13.598 42.226-123.924c.642-1.867-.058-2.218-1.489-1.342z" fill="#7bacdf" fill-rule="evenodd"/></g><g><path clip-rule="evenodd" d="m262.082 332.188 147.414 167.052c1.314 1.838 2.687 1.78 2.57-.934l-7.826-206.997-42.927 56.141c-3.504 4.61-6.629 3.122-12.323 1.984z" fill="#c5e3ff" fill-rule="evenodd"/></g><g><path clip-rule="evenodd" d="m262.082 332.188 25.844 29.296 73.006 14.502c5.724 1.109 8.848 2.597 12.353-1.984l32.473-42.485-1.518-40.209-42.927 56.141c-3.504 4.61-6.629 3.122-12.323 1.984z" fill="#8ac9fe" fill-rule="evenodd"/></g><g><path clip-rule="evenodd" d="m80.211 16.498 17.2 80.914 22.836 12.781-20.967-98.684c-1.314-.058-2.541.175-4.731.817z" fill="#3987d0" fill-rule="evenodd"/></g><g><path clip-rule="evenodd" d="m164.459 307.415c1.46 6.361 1.723 5.748 7.943 6.974l89.68 17.799 86.906 17.245c5.694 1.138 8.819 2.626 12.323-1.984l42.927-56.141 107.143-140.089c1.197-1.576.555-2.13-1.08-1.722l-33.349 7.266-123.466 165.359c-3.446 4.61-6.6 3.093-12.323 1.955l-176.586-35.044c-2.044-.409-3.446-.613-4.439-.905z" fill="#3987d0" fill-rule="evenodd"/></g><g><path clip-rule="evenodd" d="m269.003 181.215 9.87 18.616 62.464-13.598 42.227-123.923c.642-1.867-.058-2.218-1.489-1.342l-23.508 11.088-32.969 96.846z" fill="#3987d0" fill-rule="evenodd"/></g><g><path clip-rule="evenodd" d="m142.353 208.731 4.439 19.813 132.082-28.712-9.87-18.616-28.385-53.456-51.367-96.846c-.847-1.576-.438-1.342-2.161-1.692l-27.363-5.573 50.549 95.212 29.64 55.849c4.468 8.433 7.855 11.117-1.11 13.072z" fill="#8ac9fe" fill-rule="evenodd"/></g></g></svg>