<svg data-v-1084b650="" xmlns="http://www.w3.org/2000/svg" viewBox="0 0 300 300">
    <rect data-v-1084b650="" fill="none" x="0" y="0" width="300px" height="300px" class="logo-background-square">
    </rect>
    <g data-v-1084b650="" id="95cd7edb-50cd-d35d-3a63-6ddecf16a874" fill="#000000" stroke="none" transform="matrix(0.8999999999999999,0,0,0.8999999999999999,14.999993133544933,14.999993133544933)">
        <svg xmlns="http://www.w3.org/2000/svg" viewBox="0 0 100 100">
            <path d="M88.024 41.023l-6.257-8.801-.936-21.059-15.545 8.951H34.714l-15.545-8.951-.936 21.059-6.257 8.801a.5.5 0 0 0 .004.585c.004.005.01.006.013.011l-.003.002 36.96 47.025a.5.5 0 0 0 .393.191h1.314a.496.496 0 0 0 .393-.191l36.96-47.023-.003-.002c.004-.005.01-.006.013-.011a.503.503 0 0 0 .004-.587zM54.756 77.817a5.512 5.512 0 0 1-2.895-5.723l4.244-27.789 10.94 6.629-12.289 26.883zm-9.512 0L32.955 50.935l10.94-6.629 4.243 27.789a5.509 5.509 0 0 1-2.894 5.722zM23.972 36.932l-4.484-4.484 14.879-11.053 4.571 10.783-14.808 4.801-.158-.047zm51.897.047l-14.808-4.801 4.571-10.783 14.879 11.053-4.484 4.484-.158.047zm-1.691.503l-17.58 5.227 4.072-9.607 13.508 4.38zm-14.071-5.614l-.025-.008a.505.505 0 0 0-.154-.024H40.073a.505.505 0 0 0-.154.024l-.025.008-4.558-10.754h29.33l-4.559 10.754zM43.402 42.709l-17.58-5.227 13.508-4.38 4.072 9.607zm-19.259-4.683l18.908 5.622-10.765 6.523L13.737 41.4l10.406-3.374zm20.465 4.964l-4.304-10.155h19.394L55.392 42.99H44.608zm23.106 7.181l-10.765-6.523 18.909-5.622L86.263 41.4l-18.549 8.771zm9.308-12.819l4.188-4.188 5.124 7.208-9.312-3.02zm3.706-5.989L66.33 20.667l13.576-7.816.822 18.512zM33.67 20.667L19.272 31.363l.822-18.512 13.576 7.816zM18.79 33.164l4.188 4.188-9.312 3.019 5.124-7.207zm-4.703 9.508l17.849 8.44 12.44 27.211-1.432 1.063-28.857-36.714zm29.475 37.5l1.232-.914 2.492 5.652-3.724-4.738zm6.769 7.664h-.662l-4.024-9.127c2.482-1.271 3.909-3.97 3.482-6.766l-4.271-27.972 10.286.018-4.269 27.954c-.427 2.796.999 5.495 3.482 6.766l-4.024 9.127zm2.383-2.926l2.492-5.651 1.231.914-3.723 4.737zm2.91-6.586l12.44-27.211 17.849-8.44-28.857 36.713-1.432-1.062z">
            </path>
        </svg>
    </g>
</svg>
